<?xml version="1.0" standalone="no"?>
<!DOCTYPE svg PUBLIC "-//W3C//DTD SVG 20010904//EN"
 "http://www.w3.org/TR/2001/REC-SVG-20010904/DTD/svg10.dtd">
<svg version="1.0" xmlns="http://www.w3.org/2000/svg"
 width="600.000000pt" height="600.000000pt" viewBox="0 0 600.000000 600.000000"
 preserveAspectRatio="xMidYMid meet">
<metadata>
Created by potrace 1.14, written by Peter Selinger 2001-2017
</metadata>
<g transform="translate(0.000000,600.000000) scale(0.100000,-0.100000)"
fill="#000000" stroke="none">
<path d="M2878 5995 c-1 -1 -21 -5 -43 -9 -356 -52 -706 -306 -976 -708 -32
-47 -67 -101 -77 -120 -10 -18 -34 -59 -51 -90 -37 -66 -39 -65 69 -42 41 9
84 18 95 20 87 17 124 24 150 29 17 3 39 7 50 9 55 10 121 19 131 18 6 -1 37
29 67 67 66 82 169 182 252 247 59 46 217 128 265 138 96 21 123 24 190 22 91
-4 138 -12 210 -38 57 -20 166 -75 186 -93 7 -5 24 -19 40 -30 53 -38 89 -70
147 -130 60 -61 204 -246 215 -274 3 -9 9 -18 12 -21 13 -10 170 -308 170
-323 0 -3 10 -26 22 -53 12 -27 23 -53 25 -59 2 -5 30 -89 62 -185 33 -96 59
-177 59 -180 0 -3 1 -7 2 -10 2 -5 5 -20 13 -55 3 -11 13 -51 22 -90 9 -38 18
-79 21 -90 13 -64 24 -124 29 -152 3 -18 7 -46 10 -61 5 -30 8 -54 20 -157 4
-33 9 -69 11 -80 25 -136 24 -954 -1 -995 -2 -3 -6 -35 -9 -70 -3 -36 -8 -76
-11 -89 -2 -14 -7 -45 -10 -70 -3 -25 -12 -77 -20 -116 -8 -38 -17 -83 -20
-100 -12 -76 -41 -187 -91 -350 -21 -66 -38 -125 -40 -131 -1 -7 -23 -65 -49
-130 -189 -476 -442 -804 -729 -944 -116 -57 -191 -75 -316 -74 -152 1 -265
40 -423 146 -61 41 -214 189 -257 248 -41 56 -68 80 -92 81 -13 0 -31 2 -40 4
-9 2 -34 6 -55 9 -21 3 -49 8 -63 11 -14 3 -41 7 -60 10 -40 5 -74 12 -98 19
-9 3 -33 7 -52 10 -19 3 -59 12 -87 20 -29 8 -53 12 -53 9 0 -9 53 -107 82
-150 15 -23 28 -46 28 -52 0 -6 5 -11 10 -11 6 0 10 -5 10 -11 0 -12 148 -212
201 -272 70 -79 162 -167 241 -231 106 -85 326 -201 418 -221 8 -1 34 -8 58
-15 69 -18 100 -22 227 -25 248 -8 473 65 700 225 76 53 292 258 345 325 54
69 160 224 160 234 0 6 5 11 10 11 6 0 10 4 10 9 0 5 16 35 36 67 31 52 154
298 154 309 0 3 11 28 24 57 87 191 222 674 251 893 3 22 7 51 10 65 3 14 8
45 11 70 3 25 7 58 10 75 4 28 8 72 20 190 10 108 17 298 17 465 1 265 -17
532 -48 735 -2 17 -7 48 -10 70 -3 22 -10 63 -16 90 -5 28 -11 64 -13 82 -3
18 -7 40 -10 50 -3 10 -8 29 -10 43 -3 14 -10 43 -15 65 -6 22 -14 58 -20 80
-32 138 -93 328 -154 485 -52 134 -203 447 -227 470 -3 3 -21 30 -40 60 -28
45 -102 151 -137 195 -62 79 -159 181 -234 247 -68 60 -171 138 -181 138 -4 0
-24 12 -45 26 -43 29 -175 93 -201 97 -9 1 -23 6 -29 10 -7 5 -21 10 -31 12
-9 1 -35 8 -57 13 -22 6 -53 14 -70 18 -31 6 -300 15 -307 9z"/>
<path d="M2817 4734 c-1 -1 -54 -5 -117 -8 -177 -10 -341 -25 -440 -42 -14 -2
-41 -7 -60 -10 -19 -3 -46 -7 -60 -10 -14 -2 -40 -7 -59 -10 -18 -3 -43 -8
-55 -10 -26 -6 -59 -13 -88 -18 -82 -15 -430 -111 -453 -125 -5 -3 -12 -6 -15
-6 -9 -1 -85 -26 -105 -35 -11 -5 -72 -30 -135 -56 -122 -51 -375 -177 -390
-195 -3 -3 -16 -12 -30 -19 -25 -12 -207 -140 -243 -170 -66 -54 -192 -176
-232 -224 -16 -20 -41 -49 -54 -64 -57 -63 -149 -221 -191 -328 -60 -151 -75
-237 -74 -419 3 -275 87 -497 283 -740 80 -101 254 -268 309 -299 10 -5 23
-15 30 -22 45 -45 268 -180 426 -257 253 -124 637 -253 866 -292 19 -3 49 -10
65 -14 17 -5 37 -9 45 -10 8 0 36 -5 61 -10 44 -9 65 -13 164 -25 22 -3 54 -8
70 -10 17 -3 57 -8 90 -11 33 -4 76 -8 95 -11 234 -28 951 -18 981 13 18 18
107 209 135 288 9 28 22 56 27 63 5 6 7 12 4 12 -3 0 1 16 9 36 l15 37 -67 -7
c-37 -4 -77 -8 -88 -11 -145 -31 -807 -38 -978 -10 -13 2 -53 6 -90 10 -37 3
-77 8 -90 10 -13 2 -57 9 -98 15 -120 19 -123 19 -175 30 -27 6 -63 13 -80 16
-16 2 -41 7 -55 11 -14 3 -29 7 -35 8 -5 2 -30 8 -55 15 -25 7 -53 14 -63 16
-62 12 -369 117 -464 159 -209 93 -377 191 -537 314 -12 9 -64 59 -116 111
-155 153 -231 283 -267 450 -12 57 -11 218 2 270 46 190 156 357 339 515 31
27 67 56 79 64 12 8 31 23 41 33 11 10 26 18 33 18 7 0 13 4 13 9 0 5 15 16
33 25 17 9 57 32 87 51 59 37 275 145 290 145 5 0 25 9 45 20 19 11 35 17 35
14 0 -4 10 0 23 8 17 11 143 56 177 64 3 0 12 3 20 7 20 7 92 30 105 33 6 1
44 11 85 22 85 24 85 23 240 56 64 13 136 26 160 30 25 3 59 8 75 11 75 12
105 15 175 21 41 3 81 8 89 10 67 22 760 21 881 0 14 -3 50 -7 80 -11 30 -3
79 -8 108 -11 l53 -7 -22 54 c-11 30 -23 61 -26 69 -3 8 -14 34 -24 57 -10 24
-19 45 -19 47 0 3 -22 52 -50 110 -34 74 -55 106 -67 107 -10 1 -31 3 -48 4
-149 14 -618 28 -628 19z"/>
<path d="M5010 4270 c5 -17 9 -31 9 -33 -1 -1 2 -13 5 -27 3 -14 8 -36 10 -50
4 -22 17 -87 30 -146 2 -12 7 -39 11 -60 25 -162 35 -209 44 -212 20 -7 92
-72 191 -172 121 -123 196 -238 236 -365 29 -90 38 -211 22 -290 -5 -28 -11
-59 -13 -70 -1 -11 -4 -21 -5 -22 -1 -2 -3 -6 -5 -10 -11 -41 -76 -175 -92
-191 -7 -8 -18 -23 -24 -35 -28 -51 -186 -214 -264 -271 -33 -24 -61 -53 -62
-63 -2 -19 -29 -192 -38 -233 -10 -53 -25 -126 -30 -155 -3 -16 -7 -34 -9 -40
-10 -35 -18 -87 -13 -91 2 -3 29 9 58 26 30 17 62 34 72 37 9 3 17 9 17 14 0
5 5 9 11 9 21 0 245 161 327 235 91 82 121 111 168 166 75 85 86 99 134 174
65 101 69 108 76 125 4 8 17 38 29 65 66 147 95 299 90 465 -4 126 -8 158 -32
240 -9 30 -17 58 -17 62 -1 3 -4 10 -8 14 -5 4 -8 13 -8 20 0 17 -62 148 -72
152 -4 2 -8 8 -8 13 0 20 -112 178 -180 253 -69 77 -218 213 -270 247 -14 9
-36 26 -49 38 -13 11 -28 21 -32 21 -4 0 -14 6 -21 13 -14 14 -112 78 -163
107 -95 53 -126 70 -130 70 -2 0 0 -14 5 -30z"/>
<path d="M1705 3700 c-11 -3 -41 -16 -68 -28 -26 -12 -49 -22 -52 -22 -29 -6
-287 -146 -295 -160 -6 -11 -9 -20 -6 -20 2 0 0 -16 -4 -35 -4 -20 -4 -38 1
-41 5 -3 6 -10 3 -16 -29 -46 -20 -828 10 -876 12 -19 204 -109 326 -152 l113
-41 -7 53 c-4 29 -9 69 -11 88 -3 19 -7 55 -10 80 -25 202 -25 771 -1 955 7
57 18 150 20 170 1 11 5 25 9 32 10 15 -3 21 -28 13z"/>
<path d="M2955 3189 c-95 -9 -146 -44 -182 -126 -43 -94 0 -207 97 -259 27
-14 56 -18 125 -18 98 0 139 14 184 62 97 104 48 285 -89 331 -33 11 -86 15
-135 10z"/>
</g>
</svg>
